<svg xmlns="http://www.w3.org/2000/svg" viewBox="0 0 331.5 367.5"><path fill="#FFF" stroke="#EFEFEF" stroke-miterlimit="10" d="M263.8 305.2H59.4c-2.8 0-5.1-2.4-5.1-5.3V50.1c0-2.9 2.3-5.3 5.1-5.3h204.4c2.8 0 5.1 2.4 5.1 5.3v249.8c0 2.9-2.3 5.3-5.1 5.3z"/><circle fill="#FFF" stroke="#E0E0E0" stroke-miterlimit="10" cx="97.3" cy="244.7" r="7.7"/><text transform="translate(115.579 247.72)" fill="#686868" font-family="'MyriadPro-Regular'" font-size="12">Dallas Cowboys</text><circle fill="#FFF" stroke="#E0E0E0" stroke-miterlimit="10" cx="97.3" cy="209.8" r="7.7"/><text transform="translate(115.579 212.883)" fill="#686868" font-family="'MyriadPro-Regular'" font-size="12">New England Patriots</text><circle fill="#FFF" stroke="#E0E0E0" stroke-miterlimit="10" cx="97.3" cy="175" r="7.7"/><text transform="translate(115.579 178.046)" fill="#686868" font-family="'MyriadPro-Regular'" font-size="12">New York Giants</text><circle fill="#FFF" stroke="#E0E0E0" stroke-miterlimit="10" cx="97.3" cy="140.1" r="7.7"/><text transform="translate(115.579 143.21)" fill="#686868" font-family="'MyriadPro-Regular'" font-size="12">Washington Redskins</text><path fill="#987DB9" d="M269.6 100.5h-216V50.6c0-3.5 2.9-6.4 6.4-6.4h203.2c3.5 0 6.4 2.9 6.4 6.4v49.9z"/><path fill="none" d="M88.1 59.2H248v32.4H88.1z"/><text transform="translate(88.12 69.815)"><tspan x="0" y="0" fill="#FFF" font-family="'MyriadPro-Regular'" font-size="15">What is you favrotite NFL </tspan><tspan x="0" y="18" fill="#FFF" font-family="'MyriadPro-Regular'" font-size="15">Sports Team?</tspan></text><g><path fill="#FFF" stroke="#EFEFEF" stroke-miterlimit="10" d="M263.8 305.2H59.4c-2.8 0-5.1-2.4-5.1-5.3V50.1c0-2.9 2.3-5.3 5.1-5.3h204.4c2.8 0 5.1 2.4 5.1 5.3v249.8c0 2.9-2.3 5.3-5.1 5.3z"/><circle fill="#FFF" stroke="#E0E0E0" stroke-miterlimit="10" cx="97.3" cy="244.7" r="7.7"/><text transform="translate(115.579 247.72)" fill="#686868" font-family="'MyriadPro-Regular'" font-size="12">Dallas Cowboys</text><circle fill="#FFF" stroke="#E0E0E0" stroke-miterlimit="10" cx="97.3" cy="209.8" r="7.7"/><text transform="translate(115.579 212.883)" fill="#686868" font-family="'MyriadPro-Regular'" font-size="12">New England Patriots</text><circle fill="#FFF" stroke="#E0E0E0" stroke-miterlimit="10" cx="97.3" cy="175" r="7.7"/><text transform="translate(115.579 178.046)" fill="#686868" font-family="'MyriadPro-Regular'" font-size="12">New York Giants</text><circle fill="#FFF" stroke="#E0E0E0" stroke-miterlimit="10" cx="97.3" cy="140.1" r="7.7"/><text transform="translate(115.579 143.21)" fill="#686868" font-family="'MyriadPro-Regular'" font-size="12">Washington Redskins</text><path fill="#4AB0A1" d="M269.6 100.5h-216V50.6c0-3.5 2.9-6.4 6.4-6.4h203.2c3.5 0 6.4 2.9 6.4 6.4v49.9z"/><path fill="none" d="M88.1 59.2H248v32.4H88.1z"/><text transform="translate(88.12 69.815)"><tspan x="0" y="0" fill="#FFF" font-family="'MyriadPro-Regular'" font-size="15">What is you favrotite NFL </tspan><tspan x="0" y="18" fill="#FFF" font-family="'MyriadPro-Regular'" font-size="15">Sports Team?</tspan></text></g><g><path fill="#FFF" stroke="#EFEFEF" stroke-miterlimit="10" d="M263.8 305.2H59.4c-2.8 0-5.1-2.4-5.1-5.3V50.1c0-2.9 2.3-5.3 5.1-5.3h204.4c2.8 0 5.1 2.4 5.1 5.3v249.8c0 2.9-2.3 5.3-5.1 5.3z"/><circle fill="#FFF" stroke="#E0E0E0" stroke-miterlimit="10" cx="97.3" cy="244.7" r="7.7"/><text transform="translate(115.579 247.72)" fill="#686868" font-family="'MyriadPro-Regular'" font-size="12">Dallas Cowboys</text><circle fill="#FFF" stroke="#E0E0E0" stroke-miterlimit="10" cx="97.3" cy="209.8" r="7.7"/><text transform="translate(115.579 212.883)" fill="#686868" font-family="'MyriadPro-Regular'" font-size="12">New England Patriots</text><circle fill="#FFF" stroke="#E0E0E0" stroke-miterlimit="10" cx="97.3" cy="175" r="7.7"/><text transform="translate(115.579 178.046)" fill="#686868" font-family="'MyriadPro-Regular'" font-size="12">New York Giants</text><circle fill="#FFF" stroke="#E0E0E0" stroke-miterlimit="10" cx="97.3" cy="140.1" r="7.7"/><text transform="translate(115.579 143.21)" fill="#686868" font-family="'MyriadPro-Regular'" font-size="12">Washington Redskins</text><path fill="#66BDD4" d="M269.6 100.5h-216V50.6c0-3.5 2.9-6.4 6.4-6.4h203.2c3.5 0 6.4 2.9 6.4 6.4v49.9z"/><path fill="none" d="M88.1 59.2H248v32.4H88.1z"/><text transform="translate(88.12 69.815)"><tspan x="0" y="0" fill="#FFF" font-family="'MyriadPro-Regular'" font-size="15">What is you favrotite NFL </tspan><tspan x="0" y="18" fill="#FFF" font-family="'MyriadPro-Regular'" font-size="15">Sports Team?</tspan></text></g><g><path fill="#FFF" stroke="#EFEFEF" stroke-miterlimit="10" d="M263.8 305.2H59.4c-2.8 0-5.1-2.4-5.1-5.3V50.1c0-2.9 2.3-5.3 5.1-5.3h204.4c2.8 0 5.1 2.4 5.1 5.3v249.8c0 2.9-2.3 5.3-5.1 5.3z"/><circle fill="#FFF" stroke="#E0E0E0" stroke-miterlimit="10" cx="97.3" cy="244.7" r="7.7"/><text transform="translate(115.579 247.72)" fill="#686868" font-family="'MyriadPro-Regular'" font-size="12">Dallas Cowboys</text><circle fill="#FFF" stroke="#E0E0E0" stroke-miterlimit="10" cx="97.3" cy="209.8" r="7.7"/><text transform="translate(115.579 212.883)" fill="#686868" font-family="'MyriadPro-Regular'" font-size="12">New England Patriots</text><circle fill="#FFF" stroke="#E0E0E0" stroke-miterlimit="10" cx="97.3" cy="175" r="7.7"/><text transform="translate(115.579 178.046)" fill="#686868" font-family="'MyriadPro-Regular'" font-size="12">New York Giants</text><circle fill="#FFF" stroke="#E0E0E0" stroke-miterlimit="10" cx="97.3" cy="140.1" r="7.7"/><text transform="translate(115.579 143.21)" fill="#686868" font-family="'MyriadPro-Regular'" font-size="12">Washington Redskins</text><path fill="#4C69B1" d="M269.6 100.5h-216V50.6c0-3.5 2.9-6.4 6.4-6.4h203.2c3.5 0 6.4 2.9 6.4 6.4v49.9z"/><path fill="none" d="M88.1 59.2H248v32.4H88.1z"/><text transform="translate(88.12 69.815)"><tspan x="0" y="0" fill="#FFF" font-family="'MyriadPro-Regular'" font-size="15">What is you favrotite NFL </tspan><tspan x="0" y="18" fill="#FFF" font-family="'MyriadPro-Regular'" font-size="15">Sports Team?</tspan></text></g><path fill="none" stroke="#60C199" stroke-width="3" stroke-linecap="round" stroke-linejoin="round" stroke-miterlimit="10" d="M107.4 201.8L97.2 212l-5.2-5.2"/></svg>